HIERARCHY
ROOT Hips
{
	OFFSET 0.000000 0.000000 0.000000
	CHANNELS 6 Xposition Yposition Zposition Xrotation Yrotation Zrotation
	JOINT LeftUpLeg_virtual
	{
		OFFSET 0.000000 0.000000 0.000000
		CHANNELS 3 Xrotation Yrotation Zrotation
		JOINT LeftUpLeg
		{
			OFFSET 11.394100 -6.187798 -0.413800
			CHANNELS 3 Xrotation Yrotation Zrotation
			JOINT LeftLeg
			{
				OFFSET 0.430247 -32.302673 3.732800
				CHANNELS 3 Xrotation Yrotation Zrotation
				JOINT LeftFoot
				{
					OFFSET -0.430247 -48.264931 -6.423300
					CHANNELS 3 Xrotation Yrotation Zrotation
					JOINT LeftToeBase
					{
						OFFSET 4.230900 -16.068199 23.438400
						CHANNELS 3 Xrotation Yrotation Zrotation
						JOINT LeftToe_End
						{
							OFFSET 4.510700 0.695400 19.974600
							CHANNELS 3 Xrotation Yrotation Zrotation
							End Site
							{
								OFFSET 0 0 0
							}
						}
					}
				}
			}
		}
	}
	JOINT RightUpLeg_virtual
	{
		OFFSET 0.000000 0.000000 0.000000
		CHANNELS 3 Xrotation Yrotation Zrotation
		JOINT RightUpLeg
		{
			OFFSET -11.333700 -6.187798 -0.413800
			CHANNELS 3 Xrotation Yrotation Zrotation
			JOINT RightLeg
			{
				OFFSET -0.430392 -32.302628 3.733000
				CHANNELS 3 Xrotation Yrotation Zrotation
				JOINT RightFoot
				{
					OFFSET 0.430392 -48.264973 -6.423500
					CHANNELS 3 Xrotation Yrotation Zrotation
					JOINT RightToeBase
					{
						OFFSET -4.230900 -16.068199 23.438400
						CHANNELS 3 Xrotation Yrotation Zrotation
						JOINT RightToe_End
						{
							OFFSET -4.510700 0.695400 19.974600
							CHANNELS 3 Xrotation Yrotation Zrotation
							End Site
							{
								OFFSET 0 0 0
							}
						}
					}
				}
			}
		}
	}
	JOINT Spine_virtual
	{
		OFFSET 0.000000 0.000000 0.000000
		CHANNELS 3 Xrotation Yrotation Zrotation
		JOINT Spine
		{
			OFFSET -0.002400 12.777504 0.315300
			CHANNELS 3 Xrotation Yrotation Zrotation
			JOINT Spine1
			{
				OFFSET -0.002067 5.816869 0.032633
				CHANNELS 3 Xrotation Yrotation Zrotation
				JOINT Spine1_split
				{
					OFFSET -0.002067 5.816869 0.032633
					CHANNELS 3 Xrotation Yrotation Zrotation
					JOINT Spine2
					{
						OFFSET -0.002067 5.816869 0.032633
						CHANNELS 3 Xrotation Yrotation Zrotation
						JOINT Neck_virtual
						{
							OFFSET 0.000000 0.000000 0.000000
							CHANNELS 3 Xrotation Yrotation Zrotation
							JOINT Neck
							{
								OFFSET -0.003700 21.199493 -0.826900
								CHANNELS 3 Xrotation Yrotation Zrotation
								JOINT Head
								{
									OFFSET 0.000000 20.442200 4.834800
									CHANNELS 3 Xrotation Yrotation Zrotation
									JOINT HeadTop_End
									{
										OFFSET 0.000000 34.668396 4.968400
										CHANNELS 3 Xrotation Yrotation Zrotation
										End Site
										{
											OFFSET 0 0 0
										}
									}
								}
							}
						}
						JOINT LeftShoulder_virtual
						{
							OFFSET 0.000000 0.000000 0.000000
							CHANNELS 3 Xrotation Yrotation Zrotation
							JOINT LeftShoulder
							{
								OFFSET 3.288150 8.794197 -1.372250
								CHANNELS 3 Xrotation Yrotation Zrotation
								JOINT LeftShoulder_split
								{
									OFFSET 3.288150 8.794197 -1.372250
									CHANNELS 3 Xrotation Yrotation Zrotation
									JOINT LeftArm
									{
										OFFSET 11.953299 -2.279007 -0.146200
										CHANNELS 3 Xrotation Yrotation Zrotation
										JOINT LeftForeArm
										{
											OFFSET 18.448900 0.000000 0.000000
											CHANNELS 3 Xrotation Yrotation Zrotation
											JOINT LeftHand
											{
												OFFSET 29.527798 0.000000 0.000000
												CHANNELS 3 Xrotation Yrotation Zrotation
												End Site
												{
													OFFSET 0 0 0
												}
											}
										}
									}
								}
							}
						}
						JOINT RightShoulder_virtual
						{
							OFFSET 0.000000 0.000000 0.000000
							CHANNELS 3 Xrotation Yrotation Zrotation
							JOINT RightShoulder
							{
								OFFSET -3.249400 8.794197 -1.372250
								CHANNELS 3 Xrotation Yrotation Zrotation
								JOINT RightShoulder_split
								{
									OFFSET -3.249400 8.794197 -1.372250
									CHANNELS 3 Xrotation Yrotation Zrotation
									JOINT RightArm
									{
										OFFSET -11.953299 -2.279007 -0.146200
										CHANNELS 3 Xrotation Yrotation Zrotation
										JOINT RightForeArm
										{
											OFFSET -18.448900 0.000000 0.000000
											CHANNELS 3 Xrotation Yrotation Zrotation
											JOINT RightHand
											{
												OFFSET -29.527802 0.000000 0.000000
												CHANNELS 3 Xrotation Yrotation Zrotation
												End Site
												{
													OFFSET 0 0 0
												}
											}
										}
									}
								}
							}
						}
					}
				}
			}
		}
	}
}
MOTION
Frames: 11
Frame Time: 0.03333333
-7.083326 95.726692 -1.080433 0.000000 0.000000 0.000000 2.754330 29.507025 1.252605 -43.156653 -17.463585 -0.547949 32.834116 16.657402 -5.804424 10.696669 -0.772979 -6.074167 1.644736 -1.758169 -0.125926 0.000000 0.000000 0.000000 3.664910 28.502364 0.996169 0.904630 -22.854851 -6.289334 24.139857 -9.060104 2.398581 -25.160470 -12.018855 -1.188294 -2.146846 -0.731999 -1.722395 0.000000 0.000000 0.000000 3.511059 29.245466 0.192505 3.831794 4.310188 -1.077448 0.476895 3.245168 0.500483 0.391897 0.760933 0.078152 0.000000 0.000000 0.000000 1.507220 2.832183 0.907003 -3.188109 11.877549 -6.995138 -6.057934 9.435372 9.659664 0.000000 0.000000 0.000000 0.261250 3.092968 0.936580 -0.021369 -1.861382 -3.234067 2.860534 -1.138917 -0.111315 -74.254531 -0.406856 -25.486296 1.160344 -65.661498 3.290320 0.000000 0.000000 0.000000 0.968458 3.025945 0.954982 4.267878 12.122264 8.131134 -5.294976 -0.310615 0.322791 14.722408 -6.253915 67.379823 17.045396 40.963564 -6.955459 0.000000 0.000000 0.000000 
-7.015744 95.948685 -1.282082 0.000000 0.000000 0.000000 3.297182 26.644988 1.012626 -42.039090 -16.947564 0.975099 32.432883 17.369246 -5.905099 10.219331 -0.419586 -6.523823 1.854400 -1.785591 -0.291044 0.000000 0.000000 0.000000 4.294998 25.788508 0.772186 -0.508477 -21.558715 -6.326314 24.130423 -8.708221 2.253962 -24.137354 -11.797298 -1.051962 -2.368289 -0.727921 -1.900169 0.000000 0.000000 0.000000 4.052046 26.534752 -0.055974 3.848812 4.072234 -1.250106 0.607068 3.107650 0.495995 0.367379 0.857478 0.006661 0.000000 0.000000 0.000000 1.596341 2.686561 0.885509 -3.974223 8.568292 -6.404596 -4.426444 6.266614 10.083512 0.000000 0.000000 0.000000 0.316625 2.943219 0.906814 -0.006618 -2.434273 -3.332406 2.770450 -0.972836 -0.003258 -74.656338 0.027360 -26.636910 1.722508 -67.901042 3.472513 0.000000 0.000000 0.000000 1.083703 2.873312 0.922797 4.239334 11.945399 7.910528 -5.295262 -0.180484 0.276469 14.177508 -6.071270 67.427423 17.469409 42.246482 -7.319205 0.000000 0.000000 0.000000 
-6.924338 96.182373 -1.523331 0.000000 0.000000 0.000000 3.893300 23.600175 0.774287 -40.953261 -16.565659 2.560046 32.014872 18.244470 -5.983320 9.732046 0.066499 -7.108250 2.113453 -1.790141 -0.534368 0.000000 0.000000 0.000000 4.960577 22.846848 0.559933 -2.107615 -20.166726 -6.344626 24.113906 -8.292123 2.106715 -23.001294 -11.547409 -0.891108 -2.598514 -0.728703 -2.007688 0.000000 0.000000 0.000000 4.634384 23.552236 -0.279761 3.835517 3.830171 -1.419803 0.763342 2.959604 0.487736 0.371187 1.029337 -0.041887 0.000000 0.000000 0.000000 1.704032 2.536299 0.864672 -5.050589 5.233968 -5.928426 -2.809150 3.188384 10.326373 0.000000 0.000000 0.000000 0.386001 2.806996 0.877297 0.022703 -3.084482 -3.320027 2.677039 -0.954151 0.068931 -74.930659 0.366536 -28.041400 2.544148 -70.277387 3.901501 0.000000 0.000000 0.000000 1.231253 2.725680 0.882060 4.186874 11.683524 7.660333 -5.231310 -0.039383 0.244908 13.654979 -5.761200 67.431603 17.951011 43.615396 -7.732693 0.000000 0.000000 0.000000 
-6.802463 96.431824 -1.791656 0.000000 0.000000 0.000000 4.511312 20.337419 0.541608 -39.864737 -16.269318 4.222525 31.617707 19.273721 -6.037505 9.256575 0.687126 -7.845009 2.346893 -1.777225 -0.836145 0.000000 0.000000 0.000000 5.614988 19.634448 0.367046 -3.863657 -18.679247 -6.323921 24.071030 -7.800169 1.949354 -21.758232 -11.239426 -0.729552 -2.789956 -0.740856 -2.014779 0.000000 0.000000 0.000000 5.225172 20.252933 -0.465140 3.799010 3.582795 -1.570342 0.933344 2.795570 0.482165 0.382055 1.283824 -0.036053 0.000000 0.000000 0.000000 1.817832 2.379185 0.850420 -6.412559 1.820525 -5.492819 -1.152908 0.092854 10.422541 0.000000 0.000000 0.000000 0.467654 2.682282 0.852061 0.070591 -3.780996 -3.204591 2.581648 -1.098715 0.114046 -75.040345 0.502933 -29.709639 3.668711 -72.429156 4.627397 0.000000 0.000000 0.000000 1.411091 2.584383 0.837130 4.116270 11.378130 7.400604 -5.087221 0.142651 0.185879 13.202265 -5.297626 67.321514 18.461062 44.980822 -8.148017 0.000000 0.000000 0.000000 
-6.643157 96.688492 -2.078308 0.000000 0.000000 0.000000 5.109302 16.779980 0.329996 -38.751017 -15.979926 5.974001 31.326253 20.369813 -6.075815 8.793587 1.407365 -8.721787 2.505971 -1.747190 -1.152057 0.000000 0.000000 0.000000 6.216228 16.104254 0.202845 -5.759412 -17.093539 -6.268013 23.989453 -7.213001 1.779495 -20.404149 -10.834318 -0.584918 -2.884990 -0.761853 -1.919464 0.000000 0.000000 0.000000 5.773493 16.617898 -0.609450 3.761492 3.326574 -1.687611 1.104183 2.616140 0.488438 0.401302 1.530746 0.000624 0.000000 0.000000 0.000000 1.917053 2.213638 0.848604 -8.001206 -1.716515 -5.001832 0.557606 -3.128899 10.425859 0.000000 0.000000 0.000000 0.565606 2.553422 0.831378 0.137555 -4.499040 -2.996638 2.435697 -1.335873 0.125926 -75.014028 0.379382 -31.527422 4.952393 -73.894833 5.520564 0.000000 0.000000 0.000000 1.613333 2.446036 0.801132 4.030843 11.088918 7.165289 -4.867037 0.370694 0.050320 12.824240 -4.693163 67.032822 18.926652 46.164982 -8.484126 0.000000 0.000000 0.000000 
-6.448266 96.942841 -2.376106 0.000000 0.000000 0.000000 5.646984 12.861263 0.153855 -37.551533 -15.578405 7.807791 31.184284 21.473695 -6.106360 8.257071 2.195957 -9.663935 2.637729 -1.707286 -1.455505 0.000000 0.000000 0.000000 6.741314 12.217743 0.078519 -7.781348 -15.404995 -6.186796 23.900249 -6.495727 1.593939 -18.918108 -10.294476 -0.433775 -2.849632 -0.785809 -1.759355 0.000000 0.000000 0.000000 6.259653 12.606503 -0.712479 3.746907 3.051305 -1.762446 1.260287 2.417883 0.511742 0.440125 1.765890 0.013520 0.000000 0.000000 0.000000 1.986297 2.035705 0.868987 -9.718672 -5.406643 -4.386359 2.321096 -6.536483 10.378788 0.000000 0.000000 0.000000 0.665767 2.408326 0.815886 0.217998 -5.226906 -2.751135 2.238924 -1.585935 0.187943 -74.904622 0.041051 -33.308541 6.073538 -74.385309 6.277785 0.000000 0.000000 0.000000 1.818133 2.306175 0.785835 3.939270 10.858708 6.979212 -4.633468 0.644121 -0.138148 12.489131 -4.026633 66.493463 19.249333 46.996701 -8.652625 0.000000 0.000000 0.000000 
-6.204651 97.168907 -2.660465 0.000000 0.000000 0.000000 6.089606 8.561699 0.034241 -36.228228 -14.898299 9.707478 31.176532 22.505019 -6.125303 7.534229 3.005318 -10.591273 2.756605 -1.663640 -1.714118 0.000000 0.000000 0.000000 7.171256 7.999234 0.007804 -9.933008 -13.600531 -6.096781 23.881439 -5.592885 1.388619 -17.299848 -9.584713 -0.225562 -2.693935 -0.803782 -1.603210 0.000000 0.000000 0.000000 6.659321 8.230413 -0.772044 3.772483 2.749788 -1.782519 1.378793 2.204258 0.552507 0.480792 1.936120 -0.016204 0.000000 0.000000 0.000000 2.011024 1.845437 0.909401 -11.418507 -9.244167 -3.622931 4.100312 -10.118092 10.319156 0.000000 0.000000 0.000000 0.759604 2.240971 0.805895 0.303648 -5.931041 -2.520585 1.935238 -1.751533 0.293016 -74.742002 -0.443359 -34.858219 6.723915 -73.993557 6.599553 0.000000 0.000000 0.000000 2.000671 2.164157 0.793449 3.845631 10.709851 6.844239 -4.423065 0.939456 -0.371401 12.121202 -3.403931 65.714917 19.350833 47.400147 -8.611005 0.000000 0.000000 0.000000 
-5.920918 97.351944 -2.916107 0.000000 0.000000 0.000000 6.433141 3.900520 -0.012543 -34.786280 -13.817970 11.636948 31.271109 23.404763 -6.136612 6.579235 3.765719 -11.472979 2.839797 -1.625254 -1.900882 0.000000 0.000000 0.000000 7.513827 3.458136 0.003636 -12.195299 -11.689204 -5.990597 23.992115 -4.480226 1.152805 -15.566437 -8.698158 0.080197 -2.470282 -0.808829 -1.519149 0.000000 0.000000 0.000000 6.957370 3.501792 -0.779040 3.846437 2.416361 -1.742409 1.448891 1.979451 0.603076 0.507448 2.048431 -0.062604 0.000000 0.000000 0.000000 1.999102 1.644486 0.963763 -12.975650 -13.173928 -2.731238 5.824192 -13.833569 10.246564 0.000000 0.000000 0.000000 0.831293 2.052177 0.798843 0.383196 -6.572413 -2.350469 1.570124 -1.881357 0.468453 -74.575093 -0.970406 -36.057989 6.938402 -73.129640 6.525219 0.000000 0.000000 0.000000 2.143814 2.014716 0.817861 3.764063 10.619745 6.736640 -4.248403 1.236863 -0.625698 11.659588 -2.934103 64.757269 19.228487 47.417239 -8.379011 0.000000 0.000000 0.000000 
-5.592165 97.471756 -3.106560 0.000000 0.000000 0.000000 6.697374 -1.040442 0.019865 -33.282494 -12.200944 13.555818 31.454025 24.127107 -6.168080 5.454520 4.394009 -12.287817 2.814706 -1.598180 -1.994908 0.000000 0.000000 0.000000 7.799704 -1.352596 0.078238 -14.550668 -9.717091 -5.847308 24.286064 -3.168174 0.875510 -13.807184 -7.652732 0.460101 -2.199374 -0.800120 -1.543484 0.000000 0.000000 0.000000 7.169799 -1.498978 -0.721210 3.963356 2.045080 -1.635309 1.465125 1.741502 0.653818 0.555667 2.190040 -0.091610 0.000000 0.000000 0.000000 1.954337 1.427715 1.020642 -14.281692 -17.102075 -1.779016 7.428937 -17.549285 10.156323 0.000000 0.000000 0.000000 0.870461 1.843380 0.793210 0.445592 -7.127159 -2.313650 1.107889 -2.016360 0.689172 -74.337928 -1.461836 -36.892109 6.947082 -72.314163 6.267982 0.000000 0.000000 0.000000 2.234645 1.849397 0.845401 3.708219 10.536532 6.608422 -4.085604 1.541899 -0.883745 11.030086 -2.660005 63.743533 18.930475 47.188616 -8.032046 0.000000 0.000000 0.000000 
-5.222962 97.522766 -3.231773 0.000000 0.000000 0.000000 6.910793 -6.167545 0.148941 -31.831134 -10.001361 15.428796 31.764539 24.646736 -6.245851 4.291927 4.835426 -13.023181 2.644619 -1.584714 -1.986084 0.000000 0.000000 0.000000 8.054403 -6.360557 0.243729 -16.966905 -7.738925 -5.638868 24.765547 -1.700335 0.543094 -12.119318 -6.479611 0.846408 -1.875270 -0.777472 -1.664111 0.000000 0.000000 0.000000 7.316561 -6.681395 -0.581441 4.101752 1.636245 -1.462505 1.437709 1.487853 0.695217 0.568718 2.323722 -0.056541 0.000000 0.000000 0.000000 1.894556 1.194165 1.065687 -15.265068 -20.897538 -0.837150 8.815722 -21.141063 10.024494 0.000000 0.000000 0.000000 0.886721 1.616394 0.779937 0.488310 -7.588566 -2.423477 0.609886 -2.177733 0.885545 -73.962773 -1.858554 -37.422548 6.910275 -71.894585 5.982681 0.000000 0.000000 0.000000 2.276579 1.661192 0.862107 3.686933 10.401871 6.414885 -3.876148 1.844540 -1.121006 10.173227 -2.529859 62.829879 18.542032 46.834153 -7.660642 0.000000 0.000000 0.000000 
-4.817378 97.508789 -3.286461 0.000000 0.000000 0.000000 7.123010 -11.364771 0.378843 -30.543742 -7.207528 17.209399 32.189176 24.992026 -6.390795 3.154888 5.092400 -13.640779 2.462967 -1.591571 -1.912935 0.000000 0.000000 0.000000 8.320959 -11.486406 0.519048 -19.439598 -5.826431 -5.356593 25.393805 -0.143033 0.152732 -10.538228 -5.222625 1.168299 -1.480328 -0.743956 -1.824430 0.000000 0.000000 0.000000 7.460276 -11.928942 -0.346629 4.239434 1.198339 -1.232613 1.389542 1.212973 0.718958 0.630343 2.473541 0.013868 0.000000 0.000000 0.000000 1.835776 0.938102 1.092679 -15.923901 -24.416010 0.020653 9.919603 -24.462678 9.843903 0.000000 0.000000 0.000000 0.894230 1.366211 0.752997 0.515628 -7.996249 -2.658405 0.119885 -2.374530 1.018253 -73.450714 -2.147296 -37.759379 6.913809 -71.856404 5.749504 0.000000 0.000000 0.000000 2.285382 1.438954 0.860517 3.705022 10.168336 6.142327 -3.649552 2.133932 -1.295417 9.079829 -2.441771 62.127626 18.136691 46.408055 -7.316549 0.000000 0.000000 0.000000 
